<?xml version="1.0" encoding="UTF-8"?><svg xmlns="http://www.w3.org/2000/svg" xmlns:xlink="http://www.w3.org/1999/xlink" height="482.2" preserveAspectRatio="xMidYMid meet" version="1.0" viewBox="-1.3 -0.0 502.9 482.2" width="502.9" zoomAndPan="magnify"><g><g><g id="change1_1"><path d="M152.983,155.318c-8.449,16.106-15.378,37.039-17.874,54.914-1.615,11.564,.327,26.57,11.969,29.901,8.71,2.493,18.04-4.04,21.282-12.195,3.242-8.156,1.897-17.278-.009-25.814-3.412-15.284-8.265-31.364-14.888-45.643l-.479-1.163Z" fill="#ffe9f7"/></g><g id="change2_1"><path d="M21.768,192.747C11.756,211.835,3.544,236.642,.585,257.825c-1.914,13.705,.387,31.488,14.184,35.437,10.323,2.954,21.379-4.788,25.221-14.453,3.842-9.665,2.248-20.476-.01-30.592-4.044-18.113-9.795-37.17-17.644-54.092l-.568-1.379Z" fill="#fdffcb"/></g><g id="change3_1"><path d="M88.015,58.944c-8.448,16.106-15.378,37.038-17.874,54.913-1.615,11.564,.327,26.57,11.969,29.901,8.71,2.493,18.04-4.04,21.282-12.195,3.242-8.155,1.897-17.278-.009-25.814-3.412-15.284-8.265-31.364-14.888-45.642l-.479-1.163Z" fill="#f38ca6"/></g><g id="change4_1"><path d="M419.392,365.481c-10.012,19.088-18.224,43.895-21.183,65.078-1.914,13.705,.387,31.488,14.184,35.437,10.323,2.954,21.379-4.788,25.221-14.453,3.842-9.665,2.248-20.476-.01-30.592-4.044-18.113-9.795-37.17-17.644-54.092l-.568-1.379Z" fill="#b0add5"/></g><g id="change3_2"><path d="M209.008,0c-8.449,16.106-15.378,37.039-17.874,54.913-1.615,11.564,.327,26.57,11.969,29.901,8.711,2.493,18.04-4.04,21.282-12.195,3.242-8.155,1.897-17.278-.009-25.814-3.412-15.284-8.265-31.364-14.888-45.642l-.479-1.163Z" fill="#f38ca6"/></g><g id="change4_2"><path d="M50.722,365.481c-10.012,19.088-18.224,43.895-21.183,65.078-1.914,13.705,.387,31.488,14.184,35.437,10.323,2.954,21.379-4.788,25.221-14.453,3.842-9.665,2.248-20.476-.01-30.592-4.044-18.113-9.795-37.17-17.644-54.092l-.568-1.379Z" fill="#b0add5"/></g><g id="change4_3"><path d="M389.089,173.27c-8.448,16.106-15.378,37.039-17.874,54.913-1.615,11.564,.327,26.57,11.969,29.901,8.711,2.493,18.04-4.04,21.282-12.195,3.242-8.156,1.897-17.278-.009-25.814-3.412-15.284-8.265-31.365-14.888-45.643l-.479-1.163Z" fill="#b0add5"/></g><g id="change2_2"><path d="M259.954,210.651c-10.012,19.088-18.224,43.895-21.183,65.079-1.914,13.704,.387,31.488,14.184,35.436,10.323,2.954,21.379-4.787,25.222-14.453,3.842-9.665,2.248-20.476-.011-30.592-4.043-18.113-9.794-37.17-17.644-54.091l-.568-1.379Z" fill="#fdffcb"/></g><g id="change5_1"><path d="M415.616,8.585c-8.448,16.106-15.378,37.039-17.874,54.913-1.615,11.564,.327,26.57,11.969,29.901,8.711,2.493,18.04-4.04,21.282-12.195,3.242-8.155,1.897-17.278-.009-25.814-3.412-15.284-8.265-31.364-14.888-45.642l-.479-1.163Z" fill="#aaffe6"/></g><g id="change3_3"><path d="M479.457,108.856c-10.012,19.088-18.224,43.895-21.183,65.079-1.914,13.704,.387,31.488,14.184,35.436,10.323,2.954,21.379-4.788,25.221-14.453,3.842-9.665,2.248-20.476-.01-30.592-4.044-18.113-9.795-37.17-17.644-54.091l-.568-1.379Z" fill="#f38ca6"/></g><g id="change4_4"><path d="M28.815,0C20.367,16.106,13.437,37.039,10.941,54.913c-1.615,11.564,.327,26.57,11.969,29.901,8.711,2.493,18.04-4.04,21.282-12.195,3.242-8.155,1.897-17.278-.009-25.814-3.412-15.284-8.265-31.364-14.888-45.642l-.479-1.163Z" fill="#b0add5"/></g><g id="change2_3"><path d="M323.655,80.104c-10.012,19.088-18.224,43.895-21.183,65.078-1.914,13.705,.387,31.488,14.184,35.437,10.323,2.954,21.38-4.788,25.222-14.453,3.842-9.665,2.248-20.476-.01-30.592-4.044-18.114-9.795-37.17-17.644-54.092l-.568-1.379Z" fill="#fdffcb"/></g><g id="change5_2"><path d="M114.851,276.091c-7.874,15.012-14.333,34.522-16.66,51.182-1.505,10.778,.305,24.764,11.155,27.869,8.119,2.323,16.814-3.765,19.836-11.366,3.022-7.601,1.768-16.104-.008-24.06-3.18-14.245-7.703-29.233-13.876-42.541l-.447-1.084Z" fill="#aaffe6"/></g><g id="change5_3"><path d="M324.883,314.513c-8.448,16.106-15.377,37.039-17.874,54.913-1.615,11.564,.326,26.57,11.968,29.901,8.711,2.493,18.04-4.04,21.282-12.195,3.242-8.155,1.897-17.278-.009-25.814-3.412-15.284-8.265-31.364-14.888-45.642l-.479-1.163Z" fill="#aaffe6"/></g><g id="change3_4"><path d="M205.819,370.94c-10.771,20.534-19.605,47.22-22.788,70.009-2.059,14.743,.417,33.873,15.259,38.121,11.105,3.178,22.999-5.15,27.132-15.547,4.133-10.398,2.418-22.028-.011-32.909-4.35-19.485-10.537-39.986-18.981-58.189l-.611-1.483Z" fill="#f38ca6"/></g></g></g></svg>